<svg width="20" height="20" viewBox="0 0 20 20" fill="none" xmlns="http://www.w3.org/2000/svg">
<path d="M10 1.6667V6.6667L11.6667 5.00004" stroke="#212121" stroke-linecap="round" stroke-linejoin="round"/>
<path d="M9.99992 6.6667L8.33325 5.00003" stroke="#212121" stroke-linecap="round" stroke-linejoin="round"/>
<path d="M5.83333 10C2.5 10 2.5 11.4917 2.5 13.3334V14.1667C2.5 16.4667 2.5 18.3334 6.66667 18.3334H13.3333C16.6667 18.3334 17.5 16.4667 17.5 14.1667V13.3334C17.5 11.4917 17.5 10 14.1667 10C13.3333 10 13.1 10.175 12.6667 10.5L11.8167 11.4C10.8333 12.45 9.16667 12.45 8.175 11.4L7.33333 10.5C6.9 10.175 6.66667 10 5.83333 10Z" stroke="#212121" stroke-miterlimit="10" stroke-linecap="round" stroke-linejoin="round"/>
<path d="M4.16675 10V6.6667C4.16675 4.9917 4.16675 3.60837 6.66675 3.3667" stroke="#212121" stroke-miterlimit="10" stroke-linecap="round" stroke-linejoin="round"/>
<path d="M15.8333 10V6.6667C15.8333 4.9917 15.8333 3.60837 13.3333 3.3667" stroke="#212121" stroke-miterlimit="10" stroke-linecap="round" stroke-linejoin="round"/>
</svg>
