<svg width="25" height="25" viewBox="0 0 25 25" fill="none" xmlns="http://www.w3.org/2000/svg">
<rect width="25" height="25" rx="7.35294" fill="white"/>
<path opacity="0.4" d="M11.0215 16.8972C14.2662 16.8972 16.8965 14.2669 16.8965 11.0222C16.8965 7.77754 14.2662 5.14722 11.0215 5.14722C7.77681 5.14722 5.14648 7.77754 5.14648 11.0222C5.14648 14.2669 7.77681 16.8972 11.0215 16.8972Z" fill="#2E66B9"/>
<path d="M19.8296 15.4338C19.8296 17.8603 17.859 19.8308 15.4326 19.8308C13.9326 19.8308 12.6164 19.0808 11.8223 17.9411C15.0281 17.5808 17.5796 15.0294 17.9399 11.8235C19.0796 12.6176 19.8296 13.9338 19.8296 15.4338Z" fill="#2E66B9"/>
<path d="M12.0941 10.8163L10.3294 10.1987C10.1529 10.1398 10.1162 10.1251 10.1162 9.86779C10.1162 9.67661 10.2485 9.5222 10.4176 9.5222H11.5206C11.7559 9.5222 11.947 9.73544 11.947 10.0001C11.947 10.3016 12.197 10.5516 12.4985 10.5516C12.8 10.5516 13.05 10.3016 13.05 10.0001C13.05 9.15456 12.3956 8.46338 11.5794 8.42661V8.38985C11.5794 8.08838 11.3294 7.83838 11.0279 7.83838C10.7264 7.83838 10.4764 8.08103 10.4764 8.38985V8.42661H10.4103C9.63821 8.42661 9.00586 9.07367 9.00586 9.87514C9.00586 10.5737 9.31468 11.0222 9.95439 11.2428L11.7264 11.8604C11.9029 11.9193 11.9397 11.934 11.9397 12.1913C11.9397 12.3825 11.8073 12.5369 11.6382 12.5369H10.5353C10.3 12.5369 10.1088 12.3237 10.1088 12.059C10.1088 11.7575 9.8588 11.5075 9.55733 11.5075C9.25586 11.5075 9.00586 11.7575 9.00586 12.059C9.00586 12.9046 9.66027 13.5957 10.4764 13.6325V13.6766C10.4764 13.9781 10.7264 14.2281 11.0279 14.2281C11.3294 14.2281 11.5794 13.9781 11.5794 13.6766V13.6398H11.6456C12.4176 13.6398 13.05 12.9928 13.05 12.1913C13.05 11.4928 12.7338 11.0443 12.0941 10.8163Z" fill="#2E66B9"/>
</svg>
