<svg width="26" height="26" viewBox="0 0 26 26" fill="none" xmlns="http://www.w3.org/2000/svg">
<rect x="0.270833" y="0.270833" width="25.4583" height="25.4583" rx="5.91964" fill="#F6F6F6"/>
<rect x="0.270833" y="0.270833" width="25.4583" height="25.4583" rx="5.91964" stroke="#DDDDDD" stroke-width="0.541667"/>
<path d="M17.7433 10.7798V14.5902C17.7433 15.2142 17.409 15.7935 16.8687 16.1111L13.5596 18.0219C13.0192 18.3338 12.3507 18.3338 11.8048 18.0219L8.49571 16.1111C7.95534 15.7991 7.62109 15.2197 7.62109 14.5902V10.7798C7.62109 10.1559 7.95534 9.57647 8.49571 9.25893L11.8048 7.34814C12.3452 7.03617 13.0137 7.03617 13.5596 7.34814L16.8687 9.25893C17.409 9.57647 17.7433 10.1503 17.7433 10.7798Z" stroke="#292D32" stroke-linecap="round" stroke-linejoin="round"/>
<path d="M12.6852 12.1279C13.4021 12.1279 13.9832 11.5468 13.9832 10.8299C13.9832 10.113 13.4021 9.53192 12.6852 9.53192C11.9683 9.53192 11.3872 10.113 11.3872 10.8299C11.3872 11.5468 11.9683 12.1279 12.6852 12.1279Z" stroke="#292D32" stroke-linecap="round" stroke-linejoin="round"/>
<path d="M14.9135 15.281C14.9135 14.2782 13.9163 13.4649 12.6851 13.4649C11.454 13.4649 10.4568 14.2782 10.4568 15.281" stroke="#292D32" stroke-linecap="round" stroke-linejoin="round"/>
</svg>
