<svg width="26" height="26" viewBox="0 0 26 26" fill="none" xmlns="http://www.w3.org/2000/svg">
<rect x="0.270833" y="0.270833" width="25.4583" height="25.4583" rx="5.91964" fill="#F6F6F6"/>
<rect x="0.270833" y="0.270833" width="25.4583" height="25.4583" rx="5.91964" stroke="#DDDDDD" stroke-width="0.541667"/>
<path d="M13.1849 13.4816C14.1448 13.4816 14.923 12.7035 14.923 11.7435C14.923 10.7836 14.1448 10.0054 13.1849 10.0054C12.225 10.0054 11.4468 10.7836 11.4468 11.7435C11.4468 12.7035 12.225 13.4816 13.1849 13.4816Z" stroke="#292D32"/>
<path d="M8.51658 10.7296C9.61404 5.9053 16.7614 5.91087 17.8533 10.7352C18.4939 13.5652 16.7336 15.9607 15.1904 17.4425C14.0707 18.5232 12.2992 18.5232 11.1739 17.4425C9.63632 15.9607 7.87594 13.5596 8.51658 10.7296Z" stroke="#292D32"/>
</svg>
