<svg width="26" height="26" viewBox="0 0 26 26" fill="none" xmlns="http://www.w3.org/2000/svg">
<rect x="0.270833" y="0.270833" width="25.4583" height="25.4583" rx="5.91964" fill="#F6F6F6"/>
<rect x="0.270833" y="0.270833" width="25.4583" height="25.4583" rx="5.91964" stroke="#DDDDDD" stroke-width="0.541667"/>
<path d="M8.32309 14.5234L10.8467 17.047C11.8829 18.0832 13.5652 18.0832 14.607 17.047L17.0526 14.6014C18.0888 13.5652 18.0888 11.8828 17.0526 10.8411L14.5234 8.32306C13.9942 7.79383 13.2644 7.50972 12.5179 7.54871L9.73251 7.68241C8.61835 7.73255 7.73259 8.61831 7.67688 9.72691L7.54318 12.5123C7.50975 13.2644 7.79386 13.9942 8.32309 14.5234Z" stroke="#292D32" stroke-linecap="round" stroke-linejoin="round"/>
<path d="M11.2921 12.685C12.0613 12.685 12.6848 12.0615 12.6848 11.2923C12.6848 10.5231 12.0613 9.89961 11.2921 9.89961C10.523 9.89961 9.89941 10.5231 9.89941 11.2923C9.89941 12.0615 10.523 12.685 11.2921 12.685Z" stroke="#292D32" stroke-linecap="round"/>
</svg>
