<svg width="26" height="26" viewBox="0 0 26 26" fill="none" xmlns="http://www.w3.org/2000/svg">
<rect x="0.270833" y="0.270833" width="25.4583" height="25.4583" rx="5.91964" fill="#F6F6F6"/>
<rect x="0.270833" y="0.270833" width="25.4583" height="25.4583" rx="5.91964" stroke="#DDDDDD" stroke-width="0.541667"/>
<path d="M17.1418 9.92187V15.4481C17.1418 16.2949 17.0638 16.8966 16.8633 17.3255C16.8633 17.3311 16.8577 17.3422 16.8521 17.3478C16.7296 17.5038 16.568 17.5818 16.3786 17.5818C16.0833 17.5818 15.7268 17.3868 15.3424 16.9745C14.8856 16.4843 14.1837 16.5233 13.7826 17.0581L13.2199 17.8046C12.9971 18.1054 12.7018 18.2558 12.4066 18.2558C12.1113 18.2558 11.8161 18.1054 11.5932 17.8046L11.025 17.0525C10.6295 16.5233 9.93314 16.4843 9.47633 16.969L9.47075 16.9745C8.84125 17.6486 8.28419 17.7489 7.96108 17.3478C7.95551 17.3422 7.94993 17.3311 7.94993 17.3255C7.74938 16.8966 7.67139 16.2949 7.67139 15.4481V9.92187C7.67139 9.0751 7.74938 8.47345 7.94993 8.04449C7.94993 8.03892 7.94994 8.03335 7.96108 8.02778C8.27862 7.62111 8.84125 7.72139 9.47075 8.39546L9.47633 8.40103C9.93314 8.88569 10.6295 8.8467 11.025 8.31747L11.5932 7.5654C11.8161 7.26458 12.1113 7.11417 12.4066 7.11417C12.7018 7.11417 12.9971 7.26458 13.2199 7.5654L13.7826 8.3119C14.1837 8.8467 14.8856 8.88569 15.3424 8.39546C15.7268 7.98322 16.0833 7.78824 16.3786 7.78824C16.568 7.78824 16.7296 7.8718 16.8521 8.02778C16.8633 8.03335 16.8633 8.03892 16.8633 8.04449C17.0638 8.47345 17.1418 9.0751 17.1418 9.92187Z" stroke="#292D32" stroke-linecap="round" stroke-linejoin="round"/>
<path d="M10.4565 11.7101H14.9132" stroke="#292D32" stroke-linecap="round" stroke-linejoin="round"/>
<path d="M10.4565 13.6599H13.799" stroke="#292D32" stroke-linecap="round" stroke-linejoin="round"/>
</svg>
