<svg width="26" height="26" viewBox="0 0 26 26" fill="none" xmlns="http://www.w3.org/2000/svg">
<rect x="0.270833" y="0.270833" width="25.4583" height="25.4583" rx="5.91964" fill="#F6F6F6"/>
<rect x="0.270833" y="0.270833" width="25.4583" height="25.4583" rx="5.91964" stroke="#DDDDDD" stroke-width="0.541667"/>
<path d="M18.2561 9.3425V10.6906C18.2561 11.5708 17.699 12.1279 16.8188 12.1279H14.9136V8.2339C14.9136 7.61554 15.4205 7.11417 16.0389 7.11417C16.6461 7.11974 17.2032 7.36485 17.6043 7.76595C18.0054 8.17262 18.2561 8.72971 18.2561 9.3425Z" stroke="#292D32" stroke-miterlimit="10" stroke-linecap="round" stroke-linejoin="round"/>
<path d="M7.11426 9.89958V17.6988C7.11426 18.1611 7.6379 18.423 8.00558 18.1444L8.9582 17.4314C9.18104 17.2642 9.49301 17.2865 9.69356 17.4871L10.6183 18.4174C10.8356 18.6347 11.1921 18.6347 11.4094 18.4174L12.3453 17.4815C12.5403 17.2865 12.8522 17.2642 13.0695 17.4314L14.0221 18.1444C14.3898 18.4174 14.9134 18.1556 14.9134 17.6988V8.22833C14.9134 7.61554 15.4148 7.11417 16.0276 7.11417H9.89967H9.34259C7.67134 7.11417 7.11426 8.11135 7.11426 9.3425V9.89958Z" stroke="#292D32" stroke-miterlimit="10" stroke-linecap="round" stroke-linejoin="round"/>
<path d="M9.34229 11.0137H12.6848" stroke="#292D32" stroke-linecap="round" stroke-linejoin="round"/>
<path d="M9.76025 13.2421H12.2671" stroke="#292D32" stroke-linecap="round" stroke-linejoin="round"/>
</svg>
