<svg width="26" height="26" viewBox="0 0 26 26" fill="none" xmlns="http://www.w3.org/2000/svg">
<rect x="0.270833" y="0.270833" width="25.4583" height="25.4583" rx="5.91964" fill="#F6F6F6"/>
<rect x="0.270833" y="0.270833" width="25.4583" height="25.4583" rx="5.91964" stroke="#DDDDDD" stroke-width="0.541667"/>
<path d="M11.0138 18.2558H14.3563C17.1418 18.2558 18.2559 17.1417 18.2559 14.3562V11.0137C18.2559 8.22833 17.1418 7.11417 14.3563 7.11417H11.0138C8.22842 7.11417 7.11426 8.22833 7.11426 11.0137V14.3562C7.11426 17.1417 8.22842 18.2558 11.0138 18.2558Z" stroke="#292D32" stroke-linecap="round" stroke-linejoin="round"/>
<path d="M16.0268 10.3174V14.0777C16.0268 13.4649 15.5254 12.9635 14.9126 12.9635H10.456C9.84317 12.9635 9.3418 13.4649 9.3418 14.0777V10.3174C9.3418 9.70461 9.84317 9.20323 10.456 9.20323H14.9126C15.5254 9.20323 16.0268 9.70461 16.0268 10.3174Z" stroke="#292D32" stroke-linecap="round" stroke-linejoin="round"/>
<path d="M16.5844 14.7741H16.0273" stroke="#292D32" stroke-linecap="round" stroke-linejoin="round"/>
<path d="M9.34224 14.7741H8.78516" stroke="#292D32" stroke-linecap="round" stroke-linejoin="round"/>
<path d="M16.0278 13.7992V12.1279C16.0278 11.5151 15.5264 11.0137 14.9136 11.0137H10.4569C9.84415 11.0137 9.34277 11.5151 9.34277 12.1279V13.7992" stroke="#292D32" stroke-linecap="round" stroke-linejoin="round"/>
<path d="M16.0278 14.0777V14.7741H14.078C14.078 15.5428 13.454 16.1668 12.6853 16.1668C11.9165 16.1668 11.2926 15.5428 11.2926 14.7741H9.34277V14.0777C9.34277 13.4649 9.84415 12.9635 10.4569 12.9635H14.9136C15.5264 12.9635 16.0278 13.4649 16.0278 14.0777Z" stroke="#292D32" stroke-linecap="round" stroke-linejoin="round"/>
</svg>
