<svg width="26" height="26" viewBox="0 0 26 26" fill="none" xmlns="http://www.w3.org/2000/svg">
<rect x="0.270833" y="0.270833" width="25.4583" height="25.4583" rx="5.91964" fill="#F6F6F6"/>
<rect x="0.270833" y="0.270833" width="25.4583" height="25.4583" rx="5.91964" stroke="#DDDDDD" stroke-width="0.541667"/>
<path d="M12.7745 12.0555C12.7188 12.0499 12.6519 12.0499 12.5907 12.0555C11.2648 12.0109 10.2119 10.9246 10.2119 9.58762C10.2119 8.22276 11.3149 7.11417 12.6854 7.11417C14.0502 7.11417 15.1588 8.22276 15.1588 9.58762C15.1532 10.9246 14.1004 12.0109 12.7745 12.0555Z" stroke="#292D32" stroke-linecap="round" stroke-linejoin="round"/>
<path d="M9.98865 14.1111C8.6405 15.0136 8.6405 16.4843 9.98865 17.3812C11.5206 18.4063 14.0331 18.4063 15.565 17.3812C16.9132 16.4787 16.9132 15.008 15.565 14.1111C14.0386 13.0917 11.5262 13.0917 9.98865 14.1111Z" stroke="#292D32" stroke-linecap="round" stroke-linejoin="round"/>
</svg>
