<svg width="38" height="39" viewBox="0 0 38 39" fill="none" xmlns="http://www.w3.org/2000/svg">
<path d="M27.709 35.333H5.54232C5.12239 35.333 4.71966 35.1662 4.42273 34.8693C4.1258 34.5723 3.95898 34.1696 3.95898 33.7497V3.66634C3.95898 3.24642 4.1258 2.84369 4.42273 2.54676C4.71966 2.24982 5.12239 2.08301 5.54232 2.08301H24.5423V5.24967C24.5423 5.6696 24.7091 6.07233 25.0061 6.36926C25.303 6.66619 25.7057 6.83301 26.1257 6.83301H29.2923V33.7497C29.2923 34.1696 29.1255 34.5723 28.8286 34.8693C28.5316 35.1662 28.1289 35.333 27.709 35.333Z" fill="url(#paint0_linear_2774_137972)"/>
<path d="M3.95898 29V33.75C3.95898 34.1699 4.1258 34.5727 4.42273 34.8696C4.71966 35.1665 5.12239 35.3333 5.54232 35.3333H27.709C28.1289 35.3333 28.5316 35.1665 28.8286 34.8696C29.1255 34.5727 29.2923 34.1699 29.2923 33.75V29H3.95898Z" fill="url(#paint1_linear_2774_137972)"/>
<path d="M29.292 6.83301H26.1253C25.7054 6.83301 25.3027 6.66619 25.0057 6.36926C24.7088 6.07233 24.542 5.6696 24.542 5.24967V2.08301L29.292 6.83301Z" fill="#9AA6E2"/>
<path d="M26.918 36.916C30.853 36.916 34.043 33.726 34.043 29.791C34.043 25.856 30.853 22.666 26.918 22.666C22.9829 22.666 19.793 25.856 19.793 29.791C19.793 33.726 22.9829 36.916 26.918 36.916Z" fill="url(#paint2_linear_2774_137972)"/>
<path d="M26.9173 33.7497C26.4974 33.7497 26.0947 33.5829 25.7977 33.2859C25.5008 32.989 25.334 32.5863 25.334 32.1663V31.3747H24.5423C24.1224 31.3747 23.7197 31.2079 23.4227 30.9109C23.1258 30.614 22.959 30.2113 22.959 29.7913C22.959 29.3714 23.1258 28.9687 23.4227 28.6718C23.7197 28.3748 24.1224 28.208 24.5423 28.208H25.334V27.4163C25.334 26.9964 25.5008 26.5937 25.7977 26.2968C26.0947 25.9998 26.4974 25.833 26.9173 25.833C27.3372 25.833 27.74 25.9998 28.0369 26.2968C28.3338 26.5937 28.5007 26.9964 28.5007 27.4163V28.208H29.2923C29.7122 28.208 30.115 28.3748 30.4119 28.6718C30.7088 28.9687 30.8757 29.3714 30.8757 29.7913C30.8757 30.2113 30.7088 30.614 30.4119 30.9109C30.115 31.2079 29.7122 31.3747 29.2923 31.3747H28.5007V32.1663C28.5007 32.5863 28.3338 32.989 28.0369 33.2859C27.74 33.5829 27.3372 33.7497 26.9173 33.7497Z" fill="url(#paint3_linear_2774_137972)"/>
<path d="M16.6257 12.3743H9.50065C9.29069 12.3743 9.08932 12.2909 8.94086 12.1425C8.79239 11.994 8.70898 11.7926 8.70898 11.5827C8.70898 11.3727 8.79239 11.1714 8.94086 11.0229C9.08932 10.8744 9.29069 10.791 9.50065 10.791H16.6257C16.8356 10.791 17.037 10.8744 17.1854 11.0229C17.3339 11.1714 17.4173 11.3727 17.4173 11.5827C17.4173 11.7926 17.3339 11.994 17.1854 12.1425C17.037 12.2909 16.8356 12.3743 16.6257 12.3743Z" fill="#9AA6E2"/>
<path d="M23.7507 16.3333H9.50065C9.29069 16.3333 9.08932 16.2499 8.94086 16.1015C8.79239 15.953 8.70898 15.7516 8.70898 15.5417C8.70898 15.3317 8.79239 15.1303 8.94086 14.9819C9.08932 14.8334 9.29069 14.75 9.50065 14.75H23.7507C23.9606 14.75 24.162 14.8334 24.3104 14.9819C24.4589 15.1303 24.5423 15.3317 24.5423 15.5417C24.5423 15.7516 24.4589 15.953 24.3104 16.1015C24.162 16.2499 23.9606 16.3333 23.7507 16.3333Z" fill="#9AA6E2"/>
<path d="M20.584 20.2913H9.50065C9.29069 20.2913 9.08932 20.2079 8.94086 20.0595C8.79239 19.911 8.70898 19.7096 8.70898 19.4997C8.70898 19.2897 8.79239 19.0883 8.94086 18.9399C9.08932 18.7914 9.29069 18.708 9.50065 18.708H20.584C20.7939 18.708 20.9953 18.7914 21.1438 18.9399C21.2922 19.0883 21.3757 19.2897 21.3757 19.4997C21.3757 19.7096 21.2922 19.911 21.1438 20.0595C20.9953 20.2079 20.7939 20.2913 20.584 20.2913Z" fill="#9AA6E2"/>
<path d="M29.2917 29H27.7083V27.4167C27.7083 27.2067 27.6249 27.0053 27.4765 26.8569C27.328 26.7084 27.1266 26.625 26.9167 26.625C26.7067 26.625 26.5053 26.7084 26.3569 26.8569C26.2084 27.0053 26.125 27.2067 26.125 27.4167V29H24.5417C24.3317 29 24.1303 29.0834 23.9819 29.2319C23.8334 29.3803 23.75 29.5817 23.75 29.7917C23.75 30.0016 23.8334 30.203 23.9819 30.3515C24.1303 30.4999 24.3317 30.5833 24.5417 30.5833H26.125V32.1667C26.125 32.3766 26.2084 32.578 26.3569 32.7265C26.5053 32.8749 26.7067 32.9583 26.9167 32.9583C27.1266 32.9583 27.328 32.8749 27.4765 32.7265C27.6249 32.578 27.7083 32.3766 27.7083 32.1667V30.5833H29.2917C29.5016 30.5833 29.703 30.4999 29.8515 30.3515C29.9999 30.203 30.0833 30.0016 30.0833 29.7917C30.0833 29.5817 29.9999 29.3803 29.8515 29.2319C29.703 29.0834 29.5016 29 29.2917 29Z" fill="url(#paint4_linear_2774_137972)"/>
<defs>
<linearGradient id="paint0_linear_2774_137972" x1="16.6257" y1="2.5778" x2="16.6257" y2="35.3765" gradientUnits="userSpaceOnUse">
<stop stop-color="#EAECF7"/>
<stop offset="1" stop-color="#CDD3F1"/>
</linearGradient>
<linearGradient id="paint1_linear_2774_137972" x1="16.6257" y1="30.0838" x2="16.6257" y2="35.532" gradientUnits="userSpaceOnUse">
<stop stop-color="#E2E5F4" stop-opacity="0"/>
<stop offset="1" stop-color="#9AA6E2"/>
</linearGradient>
<linearGradient id="paint2_linear_2774_137972" x1="22.0405" y1="24.7758" x2="32.6433" y2="35.6786" gradientUnits="userSpaceOnUse">
<stop stop-color="#36DB39"/>
<stop offset="1" stop-color="#20B823"/>
</linearGradient>
<linearGradient id="paint3_linear_2774_137972" x1="25.0165" y1="26.2526" x2="29.0738" y2="33.8059" gradientUnits="userSpaceOnUse">
<stop stop-color="#20B823"/>
<stop offset="0.999" stop-color="#36DB39" stop-opacity="0"/>
</linearGradient>
<linearGradient id="paint4_linear_2774_137972" x1="24.7135" y1="27.1277" x2="29.2157" y2="32.5704" gradientUnits="userSpaceOnUse">
<stop stop-color="#EAECF7"/>
<stop offset="1" stop-color="#CDD3F1"/>
</linearGradient>
</defs>
</svg>
