<svg width="212" height="166" viewBox="0 0 212 166" fill="none" xmlns="http://www.w3.org/2000/svg">
<path d="M201.986 220.593H-20.7246L16.2599 126.128L58.3683 18.5729L66.1367 -1.26465H115.606L201.986 220.593Z" fill="#EFEDCB"/>
<path d="M192.86 165.253H211.795V220.656H170.215V165.079L192.86 165.251V165.253Z" fill="#FFDCA4"/>
<path d="M-6.89391 220.745L12.8105 123.101H5.9251L-13.7793 220.745H-6.89391Z" fill="#EE8C28"/>
<path d="M92.3114 220.745L72.6055 123.101H79.4924L99.1968 220.745H92.3114Z" fill="#EE8C28"/>
<path d="M95.4945 18.5737H-8.16797V126.129H95.4945V18.5737Z" fill="#FFDCA4"/>
<path d="M95.4934 18.5732V126.128H16.2598L58.3682 18.5732H95.4934Z" fill="#FFF3E1"/>
<path d="M96.8758 15.2363H-11.4258V18.5735H96.8758V15.2363Z" fill="#BCB786"/>
<path d="M34.8679 21.9658H-1.24414V25.0516H34.8679V21.9658Z" fill="#FFF3E1"/>
<path d="M9.72669 28.4429H-1.24414V31.5287H9.72669V28.4429Z" fill="#FFF3E1"/>
<path d="M44.6959 28.4429H14.9844V31.5287H44.6959V28.4429Z" fill="#FFF3E1"/>
<path d="M90.003 107.555C90.003 107.736 89.8548 107.883 89.6752 107.883H-1.24453C-1.35976 107.883 -1.46152 107.823 -1.51988 107.735C-1.55281 107.683 -1.57227 107.62 -1.57227 107.554V42.338C-1.57227 42.1569 -1.42411 42.0103 -1.24453 42.0103C-1.06495 42.0103 -0.916799 42.1584 -0.916799 42.338V107.226H89.6738C89.8548 107.226 90.0015 107.374 90.0015 107.554L90.003 107.555Z" fill="#EE8C28"/>
<path d="M10.671 112.193H1.53336C1.00688 112.193 0.580078 112.619 0.580078 113.145C0.580078 113.671 1.00688 114.098 1.53336 114.098H10.671C11.1975 114.098 11.6242 113.671 11.6242 113.145C11.6242 112.619 11.1975 112.193 10.671 112.193Z" fill="#F2B33D"/>
<path d="M25.2452 112.193H16.1076C15.5811 112.193 15.1543 112.619 15.1543 113.145C15.1543 113.671 15.5811 114.098 16.1076 114.098H25.2452C25.7717 114.098 26.1985 113.671 26.1985 113.145C26.1985 112.619 25.7717 112.193 25.2452 112.193Z" fill="#F2B33D"/>
<path d="M39.8214 112.193H30.6837C30.1573 112.193 29.7305 112.619 29.7305 113.145C29.7305 113.671 30.1573 114.098 30.6837 114.098H39.8214C40.3478 114.098 40.7746 113.671 40.7746 113.145C40.7746 112.619 40.3478 112.193 39.8214 112.193Z" fill="#F2B33D"/>
<path d="M54.3975 112.193H45.2599C44.7334 112.193 44.3066 112.619 44.3066 113.145C44.3066 113.671 44.7334 114.098 45.2599 114.098H54.3975C54.924 114.098 55.3508 113.671 55.3508 113.145C55.3508 112.619 54.924 112.193 54.3975 112.193Z" fill="#F2B33D"/>
<path d="M68.9718 112.193H59.8341C59.3077 112.193 58.8809 112.619 58.8809 113.145C58.8809 113.671 59.3077 114.098 59.8341 114.098H68.9718C69.4982 114.098 69.925 113.671 69.925 113.145C69.925 112.619 69.4982 112.193 68.9718 112.193Z" fill="#F2B33D"/>
<path d="M83.5479 112.193H74.4103C73.8838 112.193 73.457 112.619 73.457 113.145C73.457 113.671 73.8838 114.098 74.4103 114.098H83.5479C84.0744 114.098 84.5012 113.671 84.5012 113.145C84.5012 112.619 84.0744 112.193 83.5479 112.193Z" fill="#F2B33D"/>
<path d="M86.4877 34.667L80.394 52.9243L75.1667 47.9903C75.1667 47.9903 40.3192 82.305 33.3994 88.0606C26.4811 93.8161 28.1961 71.8819 20.6777 80.9268C15.1062 87.6281 4.30748 100.688 -0.915301 107.005C-1.12481 107.261 -1.32534 107.508 -1.51988 107.737C-1.55281 107.684 -1.57227 107.621 -1.57227 107.555V91.7375C-1.38221 91.5279 -1.16522 91.281 -0.915301 91.0057C4.1279 85.3758 21.0713 66.698 26.1968 64.0911C32.2471 61.0188 29.0431 81.3413 40.0648 69.8991C51.0835 58.4538 69.275 42.0118 69.275 42.0118L64.9187 36.801L86.4892 34.667H86.4877Z" fill="#F2B33D"/>
<path d="M-1.91146 6.84233C-2.54597 6.84233 -3.18947 6.73608 -3.82249 6.48617C-4.82664 6.0881 -5.60931 5.39522 -6.36654 4.72479C-6.79154 4.34917 -7.1926 3.993 -7.62509 3.6922C-9.14703 2.63418 -11.1284 2.27801 -12.9242 2.74193C-14.72 3.20584 -16.2808 4.47487 -17.1009 6.13898C-17.261 6.46372 -17.6546 6.5984 -17.9809 6.43828C-18.3056 6.27815 -18.4403 5.88457 -18.2802 5.55833C-17.294 3.55602 -15.4144 2.0281 -13.2549 1.4699C-11.094 0.911711 -8.71005 1.33971 -6.87834 2.61323C-6.383 2.95742 -5.93405 3.35549 -5.49857 3.74009C-4.79522 4.36263 -4.13077 4.95076 -3.34211 5.26352C-1.40265 6.03123 0.842096 4.90736 2.00637 4.16958C2.55409 3.8224 3.10181 3.43032 3.63157 3.05021C4.81231 2.20319 6.03345 1.32774 7.45512 0.799471C9.65048 -0.0161203 12.1212 0.0976116 14.2328 1.11074C15.1411 1.54772 15.9672 2.13734 16.7633 2.70751C17.995 3.58894 19.1592 4.4225 20.521 4.6365C22.5862 4.96124 24.6245 3.79097 26.5968 2.65812L26.6926 2.60275C28.876 1.34868 31.4395 0.175433 33.9027 0.983542C35.0012 1.3442 35.8856 2.04007 36.7416 2.71499C37.4539 3.27617 38.1274 3.80744 38.8891 4.12619C41.4885 5.21714 44.4665 3.71166 47.054 2.21516C50.1263 0.438814 53.3827 -1.03225 56.3832 0.217331C56.7184 0.356506 56.8755 0.741109 56.7363 1.07632C56.5972 1.41154 56.2126 1.56867 55.8773 1.4295C53.2809 0.347528 50.2999 1.8545 47.7109 3.3525C44.6401 5.12884 41.3837 6.5984 38.3803 5.33686C37.4539 4.94777 36.6787 4.33719 35.9275 3.74608C35.1269 3.11456 34.3711 2.51895 33.4927 2.23162C31.5188 1.58513 29.2771 2.63268 27.3451 3.74159L27.2493 3.79696C25.1811 4.98518 22.8376 6.33203 20.3145 5.93396C18.6474 5.67057 17.3006 4.70683 15.9971 3.77601C15.2115 3.21333 14.4677 2.68207 13.6611 2.29447C11.8952 1.44745 9.74477 1.34719 7.90856 2.02959C6.653 2.4965 5.55457 3.28366 4.39329 4.11571C3.84856 4.5063 3.28588 4.91036 2.70523 5.277C1.47661 6.05518 -0.190483 6.83784 -1.91894 6.83784L-1.91146 6.84233Z" fill="#F2B33D"/>
<path d="M189.95 167.458L181.082 184.961L174.484 181.904L168.324 179.052L178.804 161.861L184.596 164.771L189.95 167.458Z" fill="#F07384"/>
<path d="M189.951 167.458L181.082 184.961L174.484 181.904L184.596 164.771L189.951 167.458Z" fill="#FFDCA4"/>
<path d="M205.512 193.12C204.557 197.733 203.144 201.909 201.34 205.54C196.629 215.005 189.218 220.744 180.157 220.744H158.99C158.99 211.331 163.423 210.165 163.423 210.165C183.959 207.132 176.727 184.495 176.306 182.748C175.883 181.002 180.926 179.905 182.714 178.115C184.504 176.325 186.033 165.492 186.033 165.492C186.91 164.684 193.354 165.203 199.011 165.836C203.703 166.358 207.852 166.966 207.852 166.966C207.852 166.966 208.955 176.473 205.512 193.119V193.12Z" fill="#02734A"/>
<path d="M205.513 193.12C204.558 197.732 203.145 201.909 201.34 205.54L199.012 165.836C203.703 166.358 207.853 166.966 207.853 166.966C207.853 166.966 208.956 176.473 205.513 193.119V193.12Z" fill="#016840"/>
<path d="M185.143 160.039C185.143 160.039 182.839 164.485 178.804 170.109C178.68 170.282 178.551 170.46 178.417 170.64C175.596 174.52 171.982 178.901 167.75 182.748C167.75 182.748 96.7676 142.467 95.0512 140.222C93.3377 137.973 140.805 83.207 140.805 83.207C140.805 83.207 161.6 79.5526 173.935 88.3879L142.623 136.521L185.143 160.039Z" fill="#084FB5"/>
<path d="M178.804 170.109C178.68 170.282 178.551 170.46 178.417 170.64L114.277 137.082C114.188 137.036 114.125 136.954 114.106 136.856C114.087 136.759 114.112 136.659 114.175 136.584L157.454 84.3294C157.569 84.1887 157.775 84.1692 157.916 84.2875C158.054 84.4027 158.073 84.6092 157.959 84.7469L114.941 136.689L178.765 170.082C178.779 170.088 178.792 170.095 178.804 170.107V170.109Z" fill="#03428E"/>
<path d="M173.935 88.3877L65.1945 199.745L42.6303 188.655L42.0197 188.355L29.7305 182.314L140.805 83.2069C140.805 83.2069 162.299 80.1211 173.935 88.3877Z" fill="#0468BF"/>
<path d="M158.251 92.6109C158.24 92.6109 158.228 92.6109 158.217 92.6094C158.16 92.6034 152.409 91.9929 145.744 91.1593C143.225 90.845 141.715 90.0893 141.257 88.9146C140.718 87.5318 141.862 86.158 141.911 86.1011C142.028 85.9635 142.236 85.9455 142.374 86.0637C142.511 86.1805 142.529 86.387 142.413 86.5261C142.404 86.5381 141.471 87.6635 141.869 88.6796C142.228 89.597 143.596 90.23 145.825 90.5083C152.484 91.3404 158.229 91.951 158.286 91.9569C158.465 91.9764 158.597 92.138 158.578 92.3176C158.56 92.4867 158.418 92.6109 158.251 92.6109Z" fill="#084FB5"/>
<path d="M147.982 91.3193L147.869 91.4211L42.6281 188.655L42.0176 188.355C42.034 188.319 42.0595 188.286 42.0894 188.257L147.015 91.3163L147.534 90.8374C147.617 90.7626 147.724 90.7357 147.823 90.7551C147.889 90.7686 147.952 90.8015 147.997 90.8539C148.121 90.9886 148.112 91.1951 147.98 91.3208L147.982 91.3193Z" fill="#084FB5"/>
<path d="M134.719 47.5393C128.849 49.0029 123.403 51.2132 118.445 53.8126C112.929 56.6979 108.017 60.0665 103.799 63.4321C96.9239 68.9078 91.8882 74.3655 89.0733 77.6938C87.3792 79.6931 86.4903 80.9247 86.4903 80.9247L76.8379 73.101C102.545 39.8204 132.211 32.8467 132.211 32.8467L134.401 45.6806L134.719 47.5393Z" fill="#EE8C28"/>
<path d="M173.934 88.3879C169.746 86.2105 161.656 84.9235 154.525 84.1753C147.158 83.4001 140.805 83.207 140.805 83.207L139.554 75.8787L138.954 72.3664L137.969 66.5944L137.804 65.6321L135.778 53.7634L132.209 32.8469C154.35 26.6454 166.649 38.1879 166.649 38.1879C170.054 41.2243 172.565 44.548 174.385 47.9884C176.158 51.3376 177.27 54.8005 177.908 58.229C180.781 73.6923 173.934 88.3879 173.934 88.3879Z" fill="#EE8C28"/>
<path d="M140.877 29.6533C140.877 29.6533 137.753 32.133 139.668 37.6237L143.658 35.0707L146.627 37.6237C146.627 37.6237 150.166 34.4945 150.105 31.3504C150.043 28.2062 143.398 26.1186 140.879 29.6533H140.877Z" fill="#D86E0F"/>
<path d="M177.907 58.2288C165.293 67.9007 146.057 67.3455 137.969 66.5942L135.779 53.7633C141.381 54.4561 160.488 56.0544 174.386 47.9883C176.159 51.3374 177.271 54.8003 177.909 58.2288H177.907Z" fill="#D86E0F"/>
<g style="mix-blend-mode:multiply" opacity="0.24">
<path d="M160.629 48.9884L155.412 61.8059L140.076 72.3517C140.076 72.3517 139.653 72.3622 138.954 72.3682L137.969 66.5962L137.805 65.6339C154.217 58.5495 156.354 42.0117 156.354 42.0117L160.628 48.9884H160.629Z" fill="#EE8C28"/>
</g>
<g style="mix-blend-mode:multiply" opacity="0.24">
<path d="M154.526 84.1753C147.158 83.4001 140.806 83.207 140.806 83.207L139.555 75.8787C149.702 69.4467 165.127 57.1739 167.547 40.8711C167.547 40.8711 186.582 69.6308 154.526 84.1753Z" fill="#EE8C28"/>
</g>
<path d="M118.445 53.8143C112.929 56.6995 108.017 60.0681 103.799 63.4337C103.914 62.5867 104.148 61.7098 104.508 60.8209C106.53 55.8181 111.76 52.3208 116.182 53.0106C117.032 53.1423 117.788 53.4177 118.444 53.8158L118.445 53.8143Z" fill="#E07717"/>
<g style="mix-blend-mode:multiply" opacity="0.24">
<path d="M134.719 47.5393C128.848 49.0029 123.402 51.2132 118.444 53.8126C112.928 56.6979 108.017 60.0665 103.798 63.4321C96.9231 68.9078 91.8874 74.3656 89.0725 77.6938L87.0762 76.2856C87.0762 75.8516 100.301 55.4543 134.398 45.6807L134.717 47.5393H134.719Z" fill="#EE8C28"/>
</g>
<path d="M67.2637 68.4229L95.0521 71.2288L102.822 94.1357L76.1469 92.283L67.2637 68.4229Z" fill="#142126"/>
<path d="M68.6487 72.1418C68.6487 72.1418 67.4755 69.3448 66.1241 69.9943C64.7728 70.6423 66.8814 75.8322 67.908 79.6707C68.9346 83.5092 72.1236 90.4215 74.503 90.4515C76.881 90.4814 78.8818 89.1555 80.8811 86.6563C82.8819 84.1572 80.2331 84.2111 80.2331 84.2111C80.2331 84.2111 82.9897 82.9974 80.504 81.2809C80.504 81.2809 82.7547 80.374 81.6294 78.8072C81.6294 78.8072 82.8774 76.8169 81.3121 76.7316C79.7468 76.6463 70.25 76.4427 70.25 76.4427L68.6502 72.1448L68.6487 72.1418Z" fill="#F07384"/>
<path d="M81.6291 78.9703H75.9439C75.8526 78.9703 75.7793 78.897 75.7793 78.8057C75.7793 78.7144 75.8526 78.6411 75.9439 78.6411H81.6291C81.7204 78.6411 81.7937 78.7144 81.7937 78.8057C81.7937 78.897 81.7204 78.9703 81.6291 78.9703Z" fill="#142126"/>
<path d="M76.2561 81.9723C76.1737 81.9723 76.1034 81.911 76.0929 81.8287C76.0825 81.7389 76.1453 81.6566 76.2351 81.6461L80.4837 81.1178C80.5734 81.1074 80.6558 81.1702 80.6662 81.26C80.6767 81.3498 80.6139 81.4321 80.5241 81.4426L76.2755 81.9708C76.2755 81.9708 76.262 81.9708 76.2546 81.9708L76.2561 81.9723Z" fill="#142126"/>
<path d="M77.0337 84.8111C76.9529 84.8111 76.8826 84.7512 76.8706 84.6689C76.8586 84.5791 76.9215 84.4968 77.0113 84.4834L80.2108 84.0464C80.3006 84.0344 80.3829 84.0973 80.3964 84.187C80.4083 84.2768 80.3455 84.3592 80.2557 84.3726L77.0562 84.8096C77.0487 84.8096 77.0412 84.8111 77.0337 84.8111Z" fill="#142126"/>
<path d="M133.25 20.1205C133.25 20.1205 129.845 21.0154 129.193 17.7546C128.54 14.4952 132.213 12.7248 132.213 12.7248C132.213 12.7248 130.869 5.41295 136.924 6.25098C142.979 7.08902 147.682 9.04495 148.335 12.9568C148.335 12.9568 151.269 11.9317 150.337 16.0306C149.406 20.1295 146.608 26.4687 146.608 26.4687C146.608 26.4687 144.655 24.1341 143.676 21.8056C142.697 19.477 142.745 18.9188 142.745 18.9188C142.745 18.9188 140.183 20.6413 138.227 17.1964C137.036 15.0983 135.466 15.3826 134.42 15.9258C133.748 16.2745 133.419 17.0467 133.581 17.7875C133.78 18.6944 133.902 19.8901 133.25 20.122V20.1205Z" fill="#142126"/>
<path d="M146.203 22.9592L147.135 31.0777C147.135 31.0777 145.809 34.6992 143.439 34.6663C141.069 34.6304 141.033 31.1959 141.033 31.1959C141.033 31.1959 140.947 30.4237 140.878 29.6531C140.819 28.9736 140.766 28.2912 140.796 28.1266L140.807 28.0937L140.81 28.0907C140.81 28.0279 136.824 29.8147 136.401 29.0859C132.922 23.1044 132.773 15.993 132.773 15.993C132.773 15.993 134.388 14.6267 135.611 14.2331C136.832 13.8366 137.731 14.8796 139.274 17.4282C140.817 19.9797 143.333 17.5 143.333 17.5L144.015 20.9479L144.84 20.8761C144.229 15.9945 147.821 17.0346 147.966 19.7268C148.111 22.422 146.206 22.9607 146.206 22.9607L146.203 22.9592Z" fill="#F07384"/>
<path d="M146.491 21.8521C146.451 21.8521 146.41 21.8371 146.379 21.8072C146.313 21.7443 146.31 21.6411 146.373 21.5752C146.867 21.0529 147.064 20.2658 146.876 19.5729C146.817 19.3589 146.735 19.1988 146.624 19.0821C146.502 18.9549 146.337 18.886 146.192 18.904C145.954 18.9324 145.785 19.1808 145.74 19.4113C145.686 19.6866 145.756 19.9934 145.818 20.2643C145.839 20.3526 145.783 20.4409 145.695 20.4603C145.607 20.4813 145.518 20.4259 145.499 20.3376C145.43 20.0353 145.351 19.6926 145.418 19.3484C145.484 19.0132 145.741 18.6286 146.153 18.5792C146.403 18.5478 146.668 18.6526 146.862 18.8561C147.012 19.0117 147.12 19.2182 147.193 19.4861C147.411 20.2882 147.184 21.1966 146.612 21.8012C146.579 21.8356 146.536 21.8521 146.493 21.8521H146.491Z" fill="#231F20"/>
<path d="M134.795 21.7664C134.979 21.7188 135.066 21.4331 134.987 21.1281C134.909 20.8231 134.695 20.6144 134.511 20.662C134.326 20.7095 134.239 20.9953 134.318 21.3003C134.396 21.6052 134.61 21.8139 134.795 21.7664Z" fill="#231F20"/>
<path d="M137.199 21.0759C137.384 21.0284 137.47 20.7426 137.392 20.4376C137.313 20.1327 137.1 19.924 136.915 19.9715C136.73 20.0191 136.644 20.3048 136.722 20.6098C136.8 20.9148 137.014 21.1235 137.199 21.0759Z" fill="#231F20"/>
<path d="M135.795 23.3203C135.743 23.3203 135.683 23.3113 135.628 23.2769C135.534 23.2185 135.438 23.0913 135.519 22.8115C135.676 22.2667 135.703 21.6861 135.593 21.1294C135.576 21.0411 135.634 20.9543 135.724 20.9364C135.813 20.9184 135.899 20.9768 135.917 21.0665C136.035 21.6741 136.006 22.3086 135.834 22.9028C135.822 22.9447 135.818 22.9731 135.816 22.991C135.828 22.991 135.839 22.9881 135.845 22.9866L136.744 22.8474C136.834 22.8339 136.918 22.8953 136.931 22.9851C136.945 23.0748 136.883 23.1587 136.794 23.1721L135.894 23.3113C135.869 23.3158 135.834 23.3203 135.795 23.3203Z" fill="#231F20"/>
<path d="M137.229 24.5848C137.167 24.5848 137.109 24.5504 137.08 24.492C137.042 24.4097 137.076 24.3125 137.157 24.2735C137.776 23.9757 138.183 23.2889 138.147 22.6035C138.143 22.5137 138.212 22.4358 138.303 22.4314C138.393 22.4269 138.471 22.4957 138.475 22.587C138.519 23.4026 138.035 24.2182 137.299 24.5714C137.277 24.5818 137.253 24.5878 137.229 24.5878V24.5848Z" fill="#231F20"/>
<path d="M133.537 20.4933C133.503 20.4933 133.467 20.4829 133.437 20.4589C133.365 20.4036 133.352 20.3003 133.407 20.2285C133.741 19.7975 134.263 19.5146 134.806 19.4727C134.898 19.4653 134.976 19.5326 134.983 19.6239C134.99 19.7137 134.923 19.793 134.832 19.8005C134.38 19.8364 133.944 20.0713 133.668 20.4305C133.635 20.4724 133.587 20.4948 133.537 20.4948V20.4933Z" fill="#231F20"/>
<path d="M136.009 19.3949C135.965 19.3949 135.922 19.377 135.889 19.344C135.826 19.2782 135.829 19.1749 135.895 19.1121C136.308 18.7215 136.931 18.5644 137.48 18.7095C137.568 18.7335 137.619 18.8233 137.597 18.9101C137.573 18.9983 137.483 19.0492 137.396 19.0268C136.955 18.9101 136.453 19.0373 136.121 19.35C136.09 19.38 136.049 19.3949 136.009 19.3949Z" fill="#231F20"/>
<path d="M143.232 26.9146L140.878 29.6531C140.818 28.9737 140.766 28.2913 140.796 28.1267L140.806 28.0938L140.809 28.0908L143.232 26.916V26.9146Z" fill="#CC425F"/>
<path d="M114.427 76.4262C114.427 76.4262 107.414 78.2415 104.444 78.4884C101.473 78.7353 96.1937 75.5179 94.4607 75.6002C92.7278 75.6825 92.5632 77.7731 94.4607 78.5019C96.3583 79.2307 98.7512 80.3037 98.7512 80.3037C98.7512 80.3037 96.7713 82.9435 92.4809 83.0258C88.1904 83.1081 86.1282 84.0988 86.5398 85.2541C86.9528 86.4094 87.8597 86.4917 87.8597 86.4917C87.8597 86.4917 87.7774 87.9762 89.8396 88.2246C89.8396 88.2246 89.5088 90.0399 92.3971 90.2868C92.3971 90.2868 91.8194 92.0198 95.4499 92.2667C99.0804 92.5136 102.793 89.7481 105.104 88.9864C107.414 88.2246 114.427 86.3271 114.427 86.3271V76.4262Z" fill="#F07384"/>
<path d="M87.8607 86.6562C87.7739 86.6562 87.7021 86.5889 87.6976 86.5021C87.6916 86.4123 87.762 86.3345 87.8517 86.3285L93.8737 85.9738C93.9649 85.9694 94.0413 86.0382 94.0473 86.128C94.0532 86.2178 93.9829 86.2956 93.8931 86.3016L87.8712 86.6562C87.8712 86.6562 87.8652 86.6562 87.8607 86.6562Z" fill="#142126"/>
<path d="M94.6416 88.3893H89.8423C89.7511 88.3893 89.6777 88.316 89.6777 88.2247C89.6777 88.1334 89.7511 88.0601 89.8423 88.0601H94.6416C94.7329 88.0601 94.8062 88.1334 94.8062 88.2247C94.8062 88.316 94.7329 88.3893 94.6416 88.3893Z" fill="#142126"/>
<path d="M96.7119 90.4513C96.7119 90.4513 96.7089 90.4513 96.7074 90.4513C95.5686 90.4184 92.4319 90.4513 92.4005 90.4513C92.3062 90.4543 92.2359 90.3794 92.2344 90.2882C92.2344 90.1969 92.3062 90.1236 92.3975 90.1221C92.4289 90.1221 95.5716 90.0891 96.7179 90.1221C96.8092 90.125 96.8795 90.1999 96.8765 90.2912C96.8735 90.3795 96.8017 90.4498 96.7119 90.4498V90.4513Z" fill="#142126"/>
<path d="M165.347 63.9652C162.327 68.0925 157.606 72.3171 150.402 76.2873C141.659 81.1076 129.262 85.5492 111.822 88.9866L111.398 75.789C111.398 75.789 144.495 68.3619 151.79 58.28C159.086 48.1981 156.564 43.755 156.036 40.108C155.505 36.461 165.521 33.1448 168.637 41.2992C170.229 45.4625 172.307 54.4549 165.347 63.9652Z" fill="#EE8C28"/>
<path d="M165.347 63.9651C162.327 68.0925 157.605 72.3171 150.401 76.2873C149.981 74.8402 149.942 73.1386 150.368 71.3174C151.6 66.0647 156.228 61.8057 160.706 61.8057C162.659 61.8057 164.265 62.6168 165.345 63.9666L165.347 63.9651Z" fill="#E07717"/>
</svg>
