<svg width="56" height="47" viewBox="0 0 56 47" fill="none" xmlns="http://www.w3.org/2000/svg">
<path d="M32.8743 36.4173H9.12435C8.70442 36.4173 8.3017 36.2505 8.00476 35.9536C7.70783 35.6566 7.54102 35.2539 7.54102 34.834V3.16732C7.54102 2.74739 7.70783 2.34466 8.00476 2.04773C8.3017 1.7508 8.70442 1.58398 9.12435 1.58398H29.7077V4.75065C29.7077 5.17058 29.8745 5.5733 30.1714 5.87024C30.4684 6.16717 30.8711 6.33398 31.291 6.33398H34.4577V34.834C34.4577 35.2539 34.2909 35.6566 33.9939 35.9536C33.697 36.2505 33.2943 36.4173 32.8743 36.4173Z" fill="url(#paint0_linear_2774_137955)"/>
<path d="M32.8743 36.4176H9.12435C8.70442 36.4176 8.3017 36.2508 8.00476 35.9539C7.70783 35.657 7.54102 35.2542 7.54102 34.8343V30.876H34.4577V34.8343C34.4577 35.2542 34.2909 35.657 33.9939 35.9539C33.697 36.2508 33.2943 36.4176 32.8743 36.4176Z" fill="url(#paint1_linear_2774_137955)"/>
<path d="M34.457 6.33398H31.2904C30.8704 6.33398 30.4677 6.16717 30.1708 5.87024C29.8738 5.5733 29.707 5.17058 29.707 4.75065V1.58398L34.457 6.33398Z" fill="#9AA6E2"/>
<path d="M20.207 15.8333H13.8737C13.6637 15.8333 13.4624 15.7499 13.3139 15.6015C13.1654 15.453 13.082 15.2516 13.082 15.0417C13.082 14.8317 13.1654 14.6303 13.3139 14.4819C13.4624 14.3334 13.6637 14.25 13.8737 14.25H20.207C20.417 14.25 20.6184 14.3334 20.7668 14.4819C20.9153 14.6303 20.9987 14.8317 20.9987 15.0417C20.9987 15.2516 20.9153 15.453 20.7668 15.6015C20.6184 15.7499 20.417 15.8333 20.207 15.8333Z" fill="#788EFE"/>
<path d="M28.1237 19.7923H13.8737C13.6637 19.7923 13.4624 19.7089 13.3139 19.5604C13.1654 19.412 13.082 19.2106 13.082 19.0007C13.082 18.7907 13.1654 18.5893 13.3139 18.4409C13.4624 18.2924 13.6637 18.209 13.8737 18.209H28.1237C28.3337 18.209 28.535 18.2924 28.6835 18.4409C28.832 18.5893 28.9154 18.7907 28.9154 19.0007C28.9154 19.2106 28.832 19.412 28.6835 19.5604C28.535 19.7089 28.3337 19.7923 28.1237 19.7923Z" fill="#788EFE"/>
<path d="M25.7487 23.7513H13.8737C13.6637 23.7513 13.4624 23.6679 13.3139 23.5194C13.1654 23.371 13.082 23.1696 13.082 22.9596C13.082 22.7497 13.1654 22.5483 13.3139 22.3998C13.4624 22.2514 13.6637 22.168 13.8737 22.168H25.7487C25.9587 22.168 26.16 22.2514 26.3085 22.3998C26.457 22.5483 26.5404 22.7497 26.5404 22.9596C26.5404 23.1696 26.457 23.371 26.3085 23.5194C26.16 23.6679 25.9587 23.7513 25.7487 23.7513Z" fill="#788EFE"/>
<path d="M48.8743 45.4173H25.1243C24.7044 45.4173 24.3017 45.2505 24.0048 44.9536C23.7078 44.6566 23.541 44.2539 23.541 43.834V12.1673C23.541 11.7474 23.7078 11.3447 24.0048 11.0477C24.3017 10.7508 24.7044 10.584 25.1243 10.584H45.7077V13.7507C45.7077 14.1706 45.8745 14.5733 46.1714 14.8702C46.4684 15.1672 46.8711 15.334 47.291 15.334H50.4577V43.834C50.4577 44.2539 50.2909 44.6566 49.9939 44.9536C49.697 45.2505 49.2943 45.4173 48.8743 45.4173Z" fill="url(#paint2_linear_2774_137955)"/>
<path d="M48.8743 45.4176H25.1243C24.7044 45.4176 24.3017 45.2508 24.0048 44.9539C23.7078 44.657 23.541 44.2542 23.541 43.8343V39.876H50.4577V43.8343C50.4577 44.2542 50.2909 44.657 49.9939 44.9539C49.697 45.2508 49.2943 45.4176 48.8743 45.4176Z" fill="url(#paint3_linear_2774_137955)"/>
<path d="M50.457 15.334H47.2904C46.8704 15.334 46.4677 15.1672 46.1708 14.8702C45.8738 14.5733 45.707 14.1706 45.707 13.7507V10.584L50.457 15.334Z" fill="#9AA6E2"/>
<path d="M31.5566 28.7695L30.8617 22.5653L37.0659 21.8703" stroke="#788EFE" stroke-width="1.5" stroke-miterlimit="10" stroke-linecap="round" stroke-linejoin="round"/>
<path d="M40.5234 30.2803L30.9589 22.6426" stroke="#788EFE" stroke-width="1.5" stroke-miterlimit="10" stroke-linecap="round" stroke-linejoin="round"/>
<defs>
<linearGradient id="paint0_linear_2774_137955" x1="20.9993" y1="2.57357" x2="20.9993" y2="35.457" gradientUnits="userSpaceOnUse">
<stop stop-color="#EAECF7"/>
<stop offset="1" stop-color="#CDD3F1"/>
</linearGradient>
<linearGradient id="paint1_linear_2774_137955" x1="20.9993" y1="31.5283" x2="20.9993" y2="36.4176" gradientUnits="userSpaceOnUse">
<stop stop-color="#E2E5F4" stop-opacity="0"/>
<stop offset="1" stop-color="#9AA6E2"/>
</linearGradient>
<linearGradient id="paint2_linear_2774_137955" x1="25.5" y1="11.0005" x2="36.9993" y2="44.457" gradientUnits="userSpaceOnUse">
<stop stop-color="#EAECF7"/>
<stop offset="1" stop-color="#CDD3F1"/>
</linearGradient>
<linearGradient id="paint3_linear_2774_137955" x1="36.9993" y1="40.5283" x2="36.9993" y2="45.4176" gradientUnits="userSpaceOnUse">
<stop stop-color="#E2E5F4" stop-opacity="0"/>
<stop offset="1" stop-color="#9AA6E2"/>
</linearGradient>
</defs>
</svg>
